<svg enable-background="new 0 0 1000 273.812" height="165.529454" viewBox="0 0 1000 273.812" width="604.122093" xmlns="http://www.w3.org/2000/svg"><path d="m603.325 93.3c-.286 0-.595-.023-.892-.081-5.14-2.707-5.29-9.185-4.74-15.182l.012-.103-.081-.079c-4.466-4.879-9.252-12.555-6.717-21.398 1.406-8.26 5.54-15.103 13.399-22.208 8.18-6.889 17.937-11.276 31.622-14.223 3.017-.605 5.919-.902 8.613-.902 7.382 0 12.797 2.204 16.074 6.579l.058.08.114.012c4.317.411 10.693 1.816 13.994 3.633 2.525 1.531 8.352 5.906 7.665 13.458-.662 7.437-4.375 15.925-7.448 19.535-8.053 10.818-18.667 16.644-28.925 21.316-5.666 2.638-13.115 4.079-20.986 4.079-4.444 0-8.841-.491-12.727-1.405l-.148-.035-.524.686c-1.576 2.171-4.524 6.238-8.363 6.238m56.481-54.378c-16.109 0-27.305 13.103-35.484 22.687-2.342 2.743-4.066 6.021-5.004 9.494l-.021.125.067.104c1.052 1.131 3.119 1.714 6.111 1.714 1.886 0 4.079-.207 6.866-.664 20.518-3.45 33.177-11 37.631-22.402.48-2.284.892-6.374-1.646-8.556l-3.542-2.068c-1.712-.309-3.356-.434-4.978-.434m-29.11-5.472c-12.153 0-27.782 10.602-28.901 23.772-.275 2.445 1.37 5.473 3.403 6.216l.206.091.091-.206c4.914-10.374 16.863-23.271 27.202-29.336l.65-.39-.755-.067c-.615-.058-1.244-.08-1.896-.08" fill="#0a0b0b"/><path d="m644.542 19.364c7.312 0 12.658 2.182 15.88 6.477l.139.182.204.023c4.297.4 10.624 1.794 13.893 3.577 2.49 1.507 8.213 5.814 7.539 13.24-.639 7.379-4.329 15.821-7.402 19.432-8.008 10.739-18.576 16.554-28.811 21.226-5.633 2.616-13.047 4.055-20.884 4.055-4.433 0-8.82-.48-12.681-1.404l-.309-.07-.194.263-.411.561c-1.553 2.136-4.478 6.123-8.168 6.123-.263 0-.525-.022-.787-.057-5.017-2.685-5.165-9.048-4.617-14.92l.023-.216-.16-.16c-4.41-4.833-9.162-12.441-6.637-21.226 1.382-8.18 5.483-14.966 13.296-22.036 8.169-6.854 17.892-11.23 31.52-14.166 3.005-.596 5.883-.904 8.567-.904m-39.024 44.462.206-.388c4.889-10.35 16.792-23.191 27.098-29.247l1.291-.765-1.497-.125c-.615-.057-1.256-.092-1.908-.092-15.273 0-28.205 12.897-29.143 23.979-.297 2.547 1.428 5.701 3.542 6.489zm19.969 9.459c1.862 0 4.125-.217 6.901-.673 20.607-3.462 33.323-11.047 37.823-22.62.48-2.296.903-6.489-1.792-8.797l-3.495-2.045-.081-.045-.091-.011c-1.657-.275-3.313-.412-4.936-.412-16.233 0-27.476 13.16-35.679 22.768-2.374 2.764-4.11 6.089-5.06 9.597l-.069.263.194.183c1.099 1.209 3.156 1.792 6.285 1.792m19.055-54.412c-2.901 0-5.847.354-8.658.914-11.698 2.525-22.459 6.478-31.737 14.28-6.694 6.055-11.88 12.943-13.468 22.323-2.421 8.431 1.635 16.028 6.773 21.626-.548 5.928-.41 12.623 4.938 15.445.318.045.639.067.947.067 4.306 0 7.527-4.958 8.967-6.877 3.976.937 8.363 1.406 12.796 1.406 7.563 0 15.228-1.383 21.088-4.09 11.79-5.392 21.534-11.378 28.994-21.386 3.222-3.781 6.854-12.338 7.495-19.684.56-6.078-3.143-10.876-7.769-13.686-3.542-1.941-10.064-3.267-14.097-3.644-3.737-4.97-9.87-6.694-16.269-6.694m-39.263 44.347c-1.885-.697-3.507-3.61-3.245-5.975 1.107-13 16.325-23.544 28.674-23.544.629 0 1.246.022 1.875.079-10.522 6.181-22.427 19.148-27.304 29.44m20.208 9.585c-2.525 0-4.798-.4-5.939-1.645.993-3.702 2.799-6.866 4.958-9.392 8.055-9.424 19.294-22.608 35.312-22.608 1.564 0 3.188.125 4.854.4l3.495 2.045c2.217 1.907 2.171 5.46 1.566 8.293-5.449 13.994-22.678 19.752-37.438 22.243-2.033.334-4.536.664-6.808.664"/><path d="m753.962 193.146c-1.475 0-3.062-.285-4.238-.742-7.21-3.645-7.117-12.578-7.026-20.484v-1.244c.206-2.057.388-4.215.571-6.398.388-4.523.777-9.184 1.462-13.582 2.103-13.413 4.387-26.367 9.139-37.574 1.165-2.4 2.446-4.113 5.211-5.13.297-.057.639-.09.959-.09 3.827 0 7.104 4.466 9.059 7.128.332.434.606.822.834 1.13 6.854 8.705 13.138 18.084 19.205 27.176 3.598 5.395 7.321 10.969 11.184 16.43.297.422.56.846.799 1.244.72 1.133 1.325 2.115 2.286 2.115.228 0 .479-.059.74-.184 1.384-.926 1.224-5.6-.513-15.629-1.372-8.544-3.062-16.141-5.302-23.922-.501-1.678-1.005-3.335-1.507-4.98-2.342-7.643-4.547-14.874-5.348-22.985-.364-2.067-.661-4.489-.285-6.82.285-.88 1.04-1.349 2.205-1.349.708 0 1.543.183 2.308.492 4.022 2.033 6.717 6.477 8.843 10.042.365.594.72 1.188 1.05 1.713 9.164 14.668 14.122 27.224 16.098 40.704.08 1.623.159 3.246.262 4.865.641 11.654 1.258 22.656-4.294 32.857-2.193 4.113-6.878 11.025-13.618 11.025-1.291 0-2.616-.254-3.93-.754-7.094-3.932-11.606-11.516-15.959-18.852-.801-1.336-1.566-2.627-2.354-3.895-4.992-8.203-10.408-18.291-15.068-27.109-.411-.696-1.382-1.783-2.262-1.783-.297 0-.572.125-.777.376-.434 1.086-.663 2.605-.685 4.32-.253 4.75-.527 9.365-.777 13.912-.525 9.117-1.028 17.709-1.382 26.859-.424 4.719-1.531 7.996-3.475 10.338-.673.494-1.908.78-3.415.78" fill="#0a0b0b"/><path d="m793.397 87.496c.675 0 1.485.172 2.182.457 3.977 2.011 6.639 6.42 8.774 9.961.354.606.696 1.188 1.04 1.714 9.138 14.634 14.085 27.166 16.063 40.565.067 1.635.16 3.281.25 4.889.652 11.621 1.268 22.588-4.25 32.73-2.17 4.08-6.796 10.91-13.411 10.91-1.256 0-2.559-.262-3.793-.73-7.06-3.906-11.55-11.457-15.902-18.77-.775-1.326-1.553-2.639-2.342-3.895-4.97-8.168-10.395-18.279-15.067-27.11-.435-.766-1.463-1.908-2.468-1.908-.39 0-.708.16-.972.469l-.045.056-.034.079c-.399 1.042-.641 2.595-.664 4.32-.251 4.773-.502 9.389-.775 13.947-.516 9.094-1.017 17.697-1.372 26.824-.41 4.627-1.497 7.859-3.382 10.168-.685.479-1.85.73-3.266.73-1.439 0-2.994-.275-4.113-.709-7.082-3.598-6.991-12.451-6.924-20.277l.012-1.197c.218-2.092.401-4.24.57-6.445.379-4.5.778-9.148 1.451-13.549 2.103-13.388 4.387-26.332 9.141-37.493 1.119-2.365 2.377-4.032 5.004-5.004.308-.056.616-.09.937-.09 3.702 0 6.944 4.398 8.864 7.038.32.434.594.81.845 1.119 6.833 8.704 13.115 18.084 19.171 27.167 3.621 5.4 7.335 10.977 11.195 16.438.309.412.57.846.81 1.232.745 1.201 1.384 2.24 2.47 2.24.263 0 .56-.078.912-.25 1.475-.982 1.36-5.576-.422-15.846-1.382-8.545-3.085-16.165-5.335-23.968-.491-1.668-.993-3.324-1.497-4.981-2.33-7.621-4.547-14.839-5.346-22.951-.343-2.045-.663-4.444-.273-6.672.089-.294.362-1.208 1.962-1.208m0-.479c-1.072 0-2.08.388-2.444 1.553-.388 2.263-.114 4.639.285 6.889.982 9.916 4.125 18.712 6.854 28 2.284 7.894 3.988 15.616 5.313 23.899.936 5.438 2.33 14.234.639 15.365-.239.104-.458.17-.65.17-1.109 0-1.748-1.666-2.88-3.266-10.406-14.736-19.513-29.783-30.388-43.629-1.68-2.136-5.473-8.34-10.087-8.34-.344 0-.686.023-1.028.103-2.765 1.017-4.113 2.673-5.357 5.255-4.891 11.515-7.187 24.96-9.162 37.618-1.028 6.57-1.383 13.686-2.033 20.039-.058 8.375-.56 18.037 7.185 21.955 1.211.48 2.811.756 4.319.756 1.438 0 2.765-.252 3.598-.857 2.229-2.672 3.164-6.385 3.53-10.486.548-13.766 1.404-26.594 2.147-40.783.023-1.576.241-3.121.641-4.169.183-.207.364-.288.594-.288.731 0 1.644.949 2.055 1.657 4.73 8.957 10.088 18.917 15.081 27.121 5.049 8.168 9.938 18.131 18.404 22.836 1.416.539 2.753.789 4.032.789 6.638 0 11.378-6.557 13.822-11.162 6.376-11.688 4.685-24.424 4.066-37.869-2.261-15.388-8.259-28.194-16.13-40.796-2.354-3.758-5.209-9.436-10.007-11.858-.686-.285-1.554-.502-2.399-.502"/><path d="m850.335 199.634c-6.811 0-11.608-2.535-16.52-8.785-5.028-6.227-6.65-16.484-3.884-24.4 1.005-2.811 2.227-5.428 3.528-8.215 1.463-3.141 2.971-6.398 4.125-9.904-.365-.869-.571-1.701-.801-2.582l-.205-.834c.07-.365.047-.867.023-1.348-.069-1.109-.113-2.146.856-2.639 2.229-1.143 5.106-2.081 5.153-2.09 2.136-2 3.095-5.027 4.021-7.952.343-1.085.685-2.159 1.063-3.153l.309-.731c.502-1.188 1.21-2.833 1.439-3.999l.045-.206-.182-.068c-1.623-.641-3.519-1.005-5.52-1.394-2.535-.491-5.174-.995-7.414-2.114-2.89-1.349-6.878-4.935-5.255-8.865 3.486-2.788 14.029-3.862 24.219-4.89 3.907-.399 7.93-.811 11.516-1.325l1.325-.182c7.289-1.063 14.807-2.171 22.551-2.171.742 0 1.509.012 2.251.023 2.274.296 4.056.663 6.202 2.775l6.971 8.134.204.297c1.177 1.714 3.143 4.581 2.171 5.895-3.255 3.621-7.813 4.125-12.247 4.125-1.188 0-2.397-.035-3.586-.069-1.188-.045-2.354-.079-3.519-.079-1.303 0-2.422.045-3.405.16l-19.329.583c-1.689.513-2.217 1.908-2.729 3.244-.148.389-.285.765-.469 1.131l-.207.583c-1.072 3.152-2.191 6.397-1.725 9.539l.012.104 1.325.823c1.279.09 2.444.113 3.599.113 2.114 0 4.217-.08 6.329-.148 2.092-.08 4.192-.16 6.272-.16 4.82 0 8.396.434 11.583 1.418 1.155.514 1.759 5.572 1.497 9.561-.787 2.867-9.104 3.096-14.063 3.246l-1.349.043c-3.291.137-6.443.16-10.167.16h-3.93c-1.806 0-3.609.012-5.427.035h-.125l-.069.125c-1.394 2.412-3.211 5.963-4.455 8.422-.239.639-.57 1.334-.938 2.078-1.337 2.844-3.016 6.363-.708 9.697.274.389.834.561 1.783.561 2.216 0 6.214-.98 11.275-2.238 7.551-1.873 16.94-4.193 24.55-4.193.845 0 1.668.035 2.443.092 1.726.104 5.416 6.729 5.165 11.115-.012 0-.662 1.818-1.989 2.832-4.294 3.256-25.041 15.949-39.229 17.572-1.641.168-3.069.248-4.359.248" fill="#0a0b0b"/><path d="m890.729 101.547v.48c.742 0 1.485.012 2.205.035 2.228.274 3.987.628 6.044 2.661l6.945 8.111.229.331c1.061 1.542 3.062 4.421 2.217 5.563-3.21 3.588-7.713 4.078-12.101 4.078-1.177 0-2.386-.056-3.574-.091s-2.354-.08-3.519-.08c-1.303 0-2.444.057-3.383.171l-19.352.583h-.067l-.046.023c-1.76.537-2.331 2.045-2.834 3.382-.16.366-.298.754-.502 1.165l-.184.548c-1.084 3.177-2.216 6.467-1.736 9.654l.023.228.205.116 1.234.74.103.07h.125c1.074.07 2.217.104 3.496.104 2.103 0 4.25-.092 6.329-.174 2.057-.066 4.192-.146 6.249-.146 4.81 0 8.363.436 11.48 1.393.961.436 1.646 5.096 1.372 9.277-.822 2.695-8.958 2.936-13.823 3.072l-1.371.035c-3.269.148-6.444.184-10.19.184h-1.942l-1.92-.012c-1.827 0-3.621.012-5.448.045h-.262l-.138.229c-1.371 2.354-3.107 5.746-4.489 8.488-.218.605-.562 1.303-.902 2.033-1.303 2.73-3.097 6.488-.698 9.928.309.467.949.686 1.978.686 2.239 0 6.236-1.006 11.332-2.252 7.539-1.873 16.907-4.191 24.493-4.191.845 0 1.668.023 2.443.09 1.418.094 5.13 6.365 4.936 10.797-.137.309-.753 1.84-1.895 2.719-4.297 3.258-24.974 15.914-39.116 17.514-1.646.182-3.062.262-4.341.262-6.741 0-11.46-2.514-16.337-8.691-4.958-6.17-6.58-16.338-3.827-24.174.993-2.789 2.205-5.416 3.507-8.203 1.463-3.143 2.972-6.396 4.137-9.916l.056-.184-.079-.193c-.332-.65-.55-1.475-.766-2.354-.058-.24-.126-.502-.184-.742.047-.447.023-.926 0-1.383-.058-1.232-.058-2.01.72-2.422 2.229-1.119 5.095-2.045 5.118-2.057l.103-.033.081-.07c2.101-1.987 3.062-5.06 3.997-8.019.344-1.108.675-2.148 1.052-3.13l.309-.731c.515-1.2 1.223-2.856 1.462-4.043l.081-.4-.366-.137c-1.646-.651-3.542-1.017-5.564-1.406-2.523-.491-5.15-.993-7.367-2.102-2.765-1.292-6.604-4.707-5.164-8.442 3.588-2.776 13.994-3.838 24.059-4.866 3.906-.389 7.94-.801 11.516-1.302l1.337-.207c7.276-1.062 14.795-2.159 22.516-2.159v-.483m-.002 0c-8.225 0-16.107 1.223-23.92 2.365-12.876 1.828-30.914 2.284-35.918 6.352-1.623 3.963 2.103 7.666 5.369 9.185 4.043 2.01 9.298 2.056 12.942 3.506-.263 1.395-1.221 3.474-1.725 4.673-1.439 3.644-2.182 8.363-4.958 10.99 0 0-2.901.935-5.162 2.08-1.6.811-.801 2.82-1.006 4.271.318 1.166.537 2.365 1.006 3.291-2.149 6.5-5.462 12.018-7.644 18.105-2.8 7.998-1.222 18.279 3.918 24.633 5.462 6.934 10.487 8.885 16.703 8.885 1.393 0 2.855-.111 4.387-.273 14.759-1.666 35.87-14.965 39.367-17.604 1.404-1.084 2.078-3.016 2.078-3.016.241-4.488-3.473-11.242-5.393-11.379-.799-.057-1.622-.08-2.467-.08-12.681 0-30.343 6.443-35.825 6.443-.801 0-1.36-.148-1.576-.467-2.846-4.09.582-8.57 1.644-11.539 1.406-2.764 3.131-6.111 4.456-8.398 1.815-.033 3.609-.033 5.437-.033h3.862c3.347 0 6.74-.021 10.213-.17 5.175-.172 14.737-.16 15.651-3.52.239-3.484-.183-9.15-1.656-9.803-3.712-1.131-7.644-1.427-11.676-1.427-4.148 0-8.396.308-12.578.308-1.166 0-2.331-.021-3.473-.09l-1.233-.744c-.503-3.266.799-6.762 1.896-9.984.765-1.542 1.005-3.621 3.016-4.238l19.328-.583c1.099-.125 2.229-.16 3.383-.16 2.318 0 4.729.16 7.093.16 4.696 0 9.197-.617 12.441-4.227 1.143-1.553-1.153-4.696-2.376-6.489l-6.98-8.157c-2.158-2.148-3.997-2.536-6.362-2.833-.753-.021-1.52-.033-2.262-.033"/><path d="m695.357 193.179c-7.448 0-15.445-1.166-23.077-3.369-4.889-1.484-20.997-7.416-23.809-21.305-.615-3.199-.09-5.748 1.646-7.793 2.581-3.016 5.872-5.619 9.505-7.516 4.363-1.908 9.185-2.846 14.76-2.846 8.34 0 16.748 2.104 24.893 4.113 1.862.469 3.712.926 5.506 1.348l.915.195c3.117.674 6.659 1.439 6.339 3.871-.731 2.742-3.484 3.896-6.146 5.006-.718.318-1.438.615-2.077.936-2.503 1.176-5.142 1.748-8.09 1.748-6.042 0-12.131-2.457-17.479-4.627-4.387-1.76-8.18-3.291-11.309-3.291-3.839.24-8.066.846-10.1 4.992-.742 1.498-.469 3.268.708 4.766 4.615 4.707 11.949 5.322 17.318 5.779l1.303.125c.961.059 1.919.08 2.88.08 10.258 0 19.739-2.945 28.901-5.803 6.718-2.045 13.115-4.74 15.081-10.691.262-.996.09-1.979-.458-2.961-2.056-3.494-9.115-6.408-15.057-7.973-6.124-1.199-12.36-1.359-17.639-1.359-1.964 0-3.93.023-5.894.045-1.967.023-3.907.047-5.873.047-7.927 0-16.359-.389-24.402-3.189-3.095-1.141-10.383-3.824-10.624-9.607 1.028-10.658 4.206-17.227 9.974-20.607 12.419-7.255 27.829-11.196 47.147-11.996 2.022-.091 4.01-.137 5.996-.137 9.243 0 17.193 1.005 25.009 3.164 2.239.571 3.804 1.394 5.791 2.422.583.297 1.177.594 1.829.925.743 2.697-1.588 5.861-3.143 7.94-3.793 2.364-8.818 2.753-13.275 3.095l-.41.022c-16.36 1.211-33.746 2.605-50.539 5.199-4.617 1.107-9.083 2.284-13.185 4.5-.524.959.538 1.805 1.212 2.228 9.893 2.479 20.449 3.325 30.672 4.146 9.619.766 19.547 1.565 28.801 3.679 10.852 3.21 16.2 14.052 17.593 23.144.184 7.586-1.964 14.703-5.733 19.021-10.83 10.366-25.27 12.534-35.46 12.534" fill="#0a0b0b"/><path d="m706.197 101.399c9.22 0 17.149 1.005 24.962 3.153 2.193.583 3.759 1.382 5.735 2.399.514.274 1.04.537 1.623.834.661 2.649-1.485 5.621-2.971 7.607-3.793 2.342-8.774 2.719-13.161 3.062l-.388.035c-16.383 1.2-33.78 2.604-50.609 5.208-4.626 1.109-9.104 2.285-13.229 4.524l-.137.069-.069.137c-.388.765.116 1.633 1.406 2.433l.067.035.081.035c9.824 2.456 20.403 3.289 30.638 4.112 9.598.765 19.535 1.554 28.731 3.667 10.752 3.176 16.051 13.938 17.435 22.883.172 7.563-1.942 14.611-5.634 18.861-10.816 10.314-25.178 12.496-35.321 12.496-7.426 0-15.4-1.176-23.008-3.369-4.844-1.473-20.86-7.357-23.637-21.135-.605-3.105-.092-5.588 1.588-7.574 2.559-2.992 5.826-5.564 9.392-7.438 4.364-1.908 9.162-2.832 14.68-2.832 8.328 0 16.724 2.078 24.846 4.09 1.875.469 3.726.924 5.518 1.35l.914.193c3.018.662 6.433 1.393 6.158 3.553-.708 2.65-3.405 3.781-6.01 4.889-.754.297-1.438.605-2.089.926-2.47 1.154-5.085 1.713-7.987 1.713-6.007 0-12.052-2.443-17.386-4.592-4.41-1.781-8.226-3.314-11.425-3.326-4.171.264-8.293 1.076-10.282 5.119-.787 1.6-.524 3.484.754 5.072 4.661 4.764 12.042 5.393 17.458 5.85l1.302.115c.959.045 1.94.078 2.901.078 10.281 0 19.798-2.959 29.05-5.838 6.685-2.045 13.161-4.773 15.172-10.852.285-1.041.104-2.078-.49-3.119-2.08-3.574-9.22-6.521-15.229-8.1-6.135-1.211-12.372-1.359-17.673-1.359-1.964 0-3.93.023-5.894.047-1.967.021-3.931.045-5.873.045-7.906 0-16.313-.377-24.31-3.164-4.764-1.771-10.26-4.422-10.476-9.346 1.017-10.601 4.146-17.091 9.858-20.438 12.36-7.254 27.761-11.16 47.033-11.973 2.103-.089 4.057-.135 5.986-.135m0-.48c-1.986 0-3.985.045-6.007.126-16.6.708-33.04 3.712-47.25 12.04-7.129 4.17-9.334 12.783-10.1 20.814.239 5.634 6.729 8.339 10.796 9.837 7.905 2.752 16.153 3.199 24.47 3.199 3.906 0 7.837-.094 11.767-.094 5.93 0 11.813.23 17.571 1.35 7.437 1.953 16.587 5.986 15.353 10.623-2.034 6.158-9.162 8.785-14.852 10.521-9.081 2.822-18.667 5.803-28.901 5.803-.938 0-1.896-.021-2.88-.066-5.553-.504-13.549-.813-18.438-5.826-1.028-1.291-1.439-2.959-.662-4.502 1.918-3.941 6.008-4.615 9.87-4.867 6.945.023 17.854 7.918 28.787 7.918 2.744 0 5.506-.504 8.203-1.748 3.039-1.531 7.379-2.49 8.363-6.146.364-2.9-4.046-3.564-7.448-4.33-9.459-2.203-20.118-5.449-30.468-5.449-5.084 0-10.111.777-14.863 2.867-3.748 1.955-7.037 4.617-9.574 7.563-1.861 2.217-2.296 4.891-1.702 7.998 2.365 11.732 14.338 18.563 23.98 21.5 7.333 2.113 15.285 3.381 23.145 3.381 13.193 0 26.16-3.564 35.642-12.623 4.137-4.74 5.954-12.225 5.792-19.227-1.519-9.938-7.254-20.221-17.787-23.327-19.1-4.388-40.371-3.052-59.381-7.792-.548-.344-1.576-1.12-1.234-1.817 4.09-2.216 8.637-3.403 13.103-4.466 16.555-2.57 33.725-3.964 50.529-5.208 4.568-.355 9.824-.675 13.857-3.222 1.679-2.273 3.93-5.392 3.051-8.305-2.948-1.462-4.754-2.604-7.655-3.358-8.487-2.332-16.679-3.167-25.077-3.167"/><path d="m621.671 195.739c-3.427 0-6.718-1.041-9.229-1.943-3.428-4.83-3.76-10.727-4.113-16.975-.058-1.018-.113-2.057-.206-3.107-.811-19.799 1.074-40.624 5.939-65.528.116-.39.23-.846.32-1.303.435-1.874.868-3.815 2.994-4.17 6.648 2.868 10.339 9.597 9.961 18.439-.01 1.244.184 2.456.366 3.621.251 1.564.48 3.05.228 4.569.184 6.34.527 12.852.88 19.159.766 14.051 1.566 28.594.629 42.279-.343 2.479-2.604 3.736-5.004 4.729-.868.15-1.804.23-2.765.23" fill="#0a0b0b"/><path d="m617.285 102.976c6.604 2.879 10.168 9.481 9.825 18.176-.023 1.268.172 2.479.353 3.656.241 1.553.48 3.027.218 4.489v.045.057c.184 6.283.549 12.795.892 19.102.766 14.051 1.553 28.582.639 42.232-.33 2.355-2.512 3.566-4.819 4.525-.88.16-1.794.24-2.72.24-3.313 0-6.534-.994-8.99-1.885-3.438-4.832-3.77-10.646-4.125-16.805-.044-1.029-.113-2.068-.181-3.096-.824-19.799 1.049-40.59 5.905-65.426.125-.422.239-.88.343-1.349.398-1.836.809-3.572 2.66-3.961m.069-.502c-2.855.469-2.902 3.507-3.542 5.677-4.181 21.443-6.866 43.012-5.917 65.573.524 7.438.297 14.508 4.466 20.303 2.913 1.051 6.044 1.953 9.311 1.953.938 0 1.896-.068 2.857-.252 2.216-.912 4.786-2.217 5.162-4.936 1.349-19.9-.924-41.229-1.53-61.416.458-2.684-.594-5.323-.57-8.224.34-8.375-2.88-15.548-10.237-18.678"/><path d="m912.79 273.569c-5.416 0-9.186-4.111-11.848-7.676-4.271-7.871-6.008-17.479-4.649-25.682 3.714-18.713 10.111-38.338 18.976-58.297l.058-.125-.069-.102c-2.775-4.777-4.946-11.826-5.563-17.971-.936-15.115 5.438-33.599 17.046-49.432.89-1.074 1.77-2.216 2.684-3.382 3.668-4.695 7.461-9.561 12.75-12.372.057-.035.147-.046.239-.046.662 0 1.463.915 1.702 1.691.378 2.993-.023 5.712-1.2 8.009-1.21 2.878-2.421 5.208-3.586 7.459-.525 1.005-1.052 2.011-1.576 3.05-.892 1.828-1.806 3.644-2.721 5.46-3.54 7.163-7.242 14.554-10.098 21.9l-.092.252c-1.76 5.105-4.146 12.086-1.166 18.311l.229.469.207-.469c.135-.318.959-1.518 1.736-2.672.936-1.359 1.804-2.65 2.01-3.096 10.167-15.789 18.849-25.51 31.324-37.905l1.119-1.142c5.165-5.197 12.224-12.326 20.106-12.326 2.308 0 4.582.616 6.787 1.851 4.844 4.192 7.379 8.808 9.869 14.875 5.323 12.211 2.045 27.406-3.563 37.072-6.354 11.092-14.236 17.807-24.677 26.078-8.5 5.781-17.822 8.719-27.691 8.719-.777 0-1.544-.012-2.331-.059h-.148l-.069.113c-1.588 2.549-4.58 8.01-6.295 12.203-3.22 7.893-11.035 34.58-12.885 43.914l-2.994 18.871c-.114.869-1.21 2.068-2.628 2.412-.321.024-.662.045-.993.045m69.811-149.516c-.56 0-1.017.239-1.279.697-9.254 11.492-18.005 22.356-27.418 35.54-.891 1.234-1.735 2.377-2.581 3.518-2.103 2.844-4.284 5.793-6.947 9.963-.067.104-.09.273 0 .455.149.266.583.617 2.675.617 1.267 0 2.971-.125 5.05-.387 8.029-1.029 23.704-11.289 30.57-21.775 3.176-4.9 4.865-13.17 4.661-16.952-.229-3.953-1.234-7.655-2.879-10.682-.343-.571-1.144-.994-1.852-.994" fill="#0a0b0b"/><path d="m942.412 98.737c.537 0 1.256.823 1.451 1.439.376 2.981 0 5.644-1.177 7.939-1.2 2.856-2.421 5.165-3.587 7.414-.515 1.006-1.039 2.011-1.566 3.05-.9 1.841-1.804 3.667-2.706 5.497-3.577 7.15-7.266 14.542-10.144 21.899l-.07.264c-1.759 5.139-4.18 12.178-1.153 18.496l.445.926.423-.938c.137-.309.982-1.545 1.725-2.629 1.098-1.621 1.817-2.707 1.987-3.084 10.169-15.799 18.851-25.51 31.303-37.905l1.143-1.13c5.118-5.165 12.145-12.27 19.911-12.27 2.251 0 4.489.605 6.639 1.805 4.82 4.182 7.335 8.774 9.802 14.794 5.3 12.133 2.033 27.246-3.542 36.853-6.329 11.047-14.2 17.742-24.595 25.979-8.489 5.77-17.743 8.693-27.566 8.693-.777 0-1.544-.023-2.331-.057l-.273-.01-.16.238c-1.578 2.549-4.57 8.031-6.307 12.225-3.21 7.904-11.035 34.627-12.887 43.982l-3.016 18.883c-.091.789-1.143 1.885-2.377 2.182-.342.035-.662.047-.993.047-5.312 0-9.014-4.045-11.618-7.506-4.273-7.859-5.998-17.41-4.638-25.543 3.724-18.701 10.098-38.318 18.964-58.264l.091-.229-.113-.217c-2.765-4.729-4.936-11.756-5.529-17.855-.938-15.057 5.415-33.484 16.963-49.249.903-1.086 1.795-2.24 2.709-3.405 3.645-4.684 7.426-9.517 12.634-12.281.044-.021.1-.033.158-.033m4.638 76.348c1.267 0 2.971-.125 5.083-.389 9.653-1.234 24.974-13.07 30.73-21.9 3.21-4.922 4.913-13.273 4.719-17.09-.239-3.987-1.244-7.711-2.925-10.807-.399-.629-1.256-1.085-2.057-1.085-.639 0-1.177.297-1.462.765-9.253 11.504-18.004 22.368-27.441 35.575-.868 1.223-1.736 2.365-2.569 3.518-2.112 2.857-4.295 5.803-6.957 9.973-.093.162-.16.424 0 .709.184.331.685.731 2.879.731m-4.638-76.827c-.113 0-.228.023-.354.057-6.66 3.553-11.047 10.419-15.524 15.822-9.665 13.206-18.175 31.93-17.067 49.602.617 6.193 2.822 13.309 5.587 18.072-8.237 18.543-15.002 38.271-18.987 58.365-1.485 8.9.743 18.588 4.673 25.865 2.146 2.855 6.146 7.77 12.052 7.77.343 0 .696-.023 1.039-.059 1.486-.354 2.697-1.621 2.812-2.615l3.004-18.838c1.806-9.139 9.572-35.781 12.875-43.881 1.713-4.191 4.707-9.643 6.261-12.154.798.033 1.576.045 2.354.045 10.327 0 19.648-3.211 27.828-8.773 9.995-7.893 18.266-14.816 24.744-26.148 6.158-10.592 8.637-25.693 3.586-37.267-2.444-5.963-4.935-10.646-9.983-15.011-2.365-1.324-4.661-1.885-6.912-1.885-8.556 0-16.039 8.203-21.385 13.549-13.252 13.184-21.522 22.667-31.383 37.985-.376.822-3.426 5.061-3.734 5.77-2.983-6.238-.504-13.264 1.268-18.381 3.564-9.163 8.316-18.21 12.817-27.337 1.691-3.394 3.404-6.364 5.164-10.51 1.119-2.205 1.623-4.923 1.2-8.191-.245-.812-1.113-1.852-1.935-1.852m4.638 76.346c-2.925 0-2.468-.697-2.468-.697 3.702-5.805 6.397-9.127 9.517-13.48 9.412-13.17 18.129-24.013 27.418-35.551.262-.423.65-.583 1.084-.583.641 0 1.349.389 1.622.868 1.681 3.05 2.651 6.741 2.879 10.58.194 3.813-1.53 12.004-4.638 16.803-6.648 10.191-22.07 20.609-30.41 21.672-2.284.287-3.886.388-5.004.388"/><path d="m446.444 218.483c-3.067 0-7.208-.73-9.488-4.238-3.404-6.283-4.575-13.846-5.158-18.975l-.029-.148-.114-.045c-23.363-10.693-45.017-28.309-60.994-49.604-2.25-4.09-2.679-10.647.971-14.703 14.561-15.389 35.055-19.832 58.394-23.683 1.999-.342 3.404-.388 4.061-.388.268 0 .657.023.657.023l.023-.252c.045-.88.092-1.851.125-2.845.132-3.039.281-6.477.868-8.75.103-7.917 1.428-15.856 2.713-23.545.434-2.594.862-5.187 1.251-7.756l.103-.778c.331-2.433.646-4.729 2.707-5.643.326-.115.674-.172 1.028-.172 2.234 0 4.598 2.491 6.991 7.414 2.143 5.347 3.873 17.696 3.896 17.822.811 6.706 1.405 13.287 1.93 19.078l.223 2.444 1.474.263c2.667-.103 5.267-.159 7.779-.159 8.06 0 15.852.56 23.82 1.736l3.805.628c13.447 2.193 25.076 4.113 35.711 12.007 8.419 7.333 11.63 14.428 9.756 21.705-2.959 7.563-7.986 12.92-14.108 15.047-1.258.318-2.627.48-4.057.49-5.608 0-10.452-2.469-12.396-3.6l.023-.938c5.005-2.318 11.699-6.281 12.817-14.027-.09-2.719-6.327-3.907-10.897-4.787-.755-.148-1.439-.286-2.011-.411-13.475-3.188-25.733-5.3-37.477-6.443-4.164-.411-7.008-.422-9.756-.434-1.159 0-2.33-.011-3.593-.045h-.257l.034.525c.48 7.859 1.148 18.633.714 25.42-.045 5.059-.034 9.549-.022 13.799.01 7.438.022 13.869-.211 21.215l-.012.158 1.628.605c12.177 2.596 20.363 3.131 28.924 3.131 2.342 0 4.684-.045 7.129-.078 2.468-.035 5.027-.082 7.792-.092 21.499-2.125 39.974-8.479 54.915-18.873 11.562-8.043 17.764-18.461 18.439-30.982 1.096-8.042-2.24-15.844-5.474-23.395-1.221-2.811-2.354-5.485-3.277-8.146-10.814-16.153-25.242-31.095-41.738-43.239-30.514-21.717-67.842-36.282-114.132-44.542-13.743-1.714-26.681-3.302-40.607-3.302-4.804 0-9.379.183-13.965.571l-.348.034c-4.016.367-9.019.812-12.96 4.078l-.132.126.057.148c.611 1.645 2.491 2.593 4.33 3.518.634.32 1.239.617 1.777.949l.502.342c1.183.753 1.838 1.176 1.838 2.353-1.896 2.229-5.557 2.697-8.145 2.846-.72.091-2.21.228-4.124.228-3.044 0-8.448-.376-10.533-2.901-.749-.915-.994-2.033-.749-3.347 1.594-6.614 5.649-13.549 9.642-16.45 14.423-6.1 31.633-9.208 51.082-9.208 18.93 0 39.744 2.878 61.838 8.579 2.034.629 4.096 1.269 6.152 1.896 8.973 2.753 18.239 5.587 26.909 9.185 35.557 13.857 66.573 34.409 89.685 59.44 9.596 10.27 17.615 22.848 23.829 37.402 2.514 8.579 4.867 16.576 3.496 26.732-3.141 19.088-14.645 35.369-33.288 47.111-13.139 8.604-27.989 13.744-46.724 16.211-5.348.697-12.258 1.041-20.542 1.041-18.129 0-38.71-1.783-42.206-3.188l-.326-.137-.012.342c-.12 5.336-2.319 10.441-5.346 12.43-1.323.572-3.905 1.177-6.63 1.177m-29.388-91.837c-3.707.789-7.443 1.348-11.064 1.885-10.402 1.542-20.237 3.004-28.955 9.745-1.828 1.942-1.125 4.627.023 6.352 12.098 14.131 28.399 25.373 45.947 31.666 4.318 1.52 7.34 2.33 8.985 2.459l.258.01v-.264c-.058-12.576.634-24.834 1.359-37.813l.434-7.769c.2-2.467-.063-6.237-.063-6.271l-.012-.195-.183-.034c-1.25-.24-2.633-.354-4.227-.354-1.821 0-3.717.16-5.552.309-1.793.16-3.638.309-5.397.309-.502 0-.994-.012-1.485-.035l-.034-.012z" fill="#0a0b0b"/><path d="m389.615.503c18.907 0 39.693 2.89 61.758 8.568 2.045.639 4.09 1.268 6.152 1.896 8.962 2.742 18.227 5.586 26.904 9.185 35.523 13.847 66.494 34.387 89.581 59.381 9.586 10.236 17.593 22.803 23.773 37.266l.058.171c2.468 8.42 4.799 16.371 3.45 26.482-3.141 19.008-14.624 35.242-33.198 46.953-13.091 8.578-27.921 13.707-46.632 16.186-5.325.686-12.224 1.041-20.496 1.041-18.102 0-38.63-1.783-42.12-3.189l-.639-.25-.023.686c-.121 5.176-2.319 10.305-5.175 12.189-1.331.584-3.885 1.178-6.563 1.178-3.016 0-7.065-.721-9.276-4.102-3.382-6.26-4.547-13.789-5.136-18.908l-.034-.262-.246-.127c-23.316-10.658-44.942-28.262-60.866-49.467-2.223-4.031-2.64-10.485.925-14.438 14.509-15.342 34.969-19.775 58.257-23.624 1.976-.332 3.37-.378 4.015-.378.27 0 .395.012.406.012l.479.023.035-.48c.051-.902.096-1.861.143-2.855.114-3.027.268-6.455.857-8.706l.011-.057v-.057c.092-7.837 1.411-15.766 2.702-23.431.417-2.558.862-5.209 1.251-7.779l.102-.777c.332-2.365.635-4.593 2.531-5.438.313-.114.64-.172.97-.172 2.125 0 4.41 2.445 6.758 7.255 2.13 5.335 3.86 17.65 3.883 17.765.811 6.694 1.405 13.264 1.931 19.055l.211 2.284.022.367.377.067 1.286.241h.045.057c2.61-.115 5.21-.171 7.723-.171 8.049 0 15.828.559 23.762 1.736 1.286.205 2.559.422 3.81.617 13.424 2.216 25.007 4.124 35.586 11.938 8.361 7.277 11.539 14.313 9.71 21.432-2.937 7.527-7.904 12.828-13.937 14.918-1.256.32-2.604.48-4.022.48-5.425 0-10.144-2.342-12.131-3.496v-.639c5.049-2.342 11.72-6.352 12.818-14.235-.07-2.844-6.444-4.079-11.082-4.97-.754-.148-1.439-.274-2.01-.399-13.482-3.199-25.751-5.312-37.506-6.455-4.182-.411-7.021-.422-9.785-.434-1.154-.012-2.313-.012-3.576-.045l-.526-.011.035.525.012.239c.491 7.871 1.159 18.645.725 25.441-.046 5.037-.035 9.471-.023 13.768.012 7.447.023 13.891-.211 21.225l-.011.344.325.123 1.521.563c12.155 2.58 20.368 3.117 28.943 3.117 2.341 0 4.688-.045 7.134-.08 2.479-.045 5.039-.08 7.847-.092 21.501-2.123 40.008-8.498 54.996-18.918 11.619-8.064 17.868-18.551 18.542-31.129 1.106-8.123-2.25-15.96-5.495-23.535-1.211-2.82-2.342-5.471-3.268-8.133l-.012-.069-.035-.046c-10.805-16.12-25.269-31.074-41.788-43.252-30.542-21.717-67.904-36.305-114.286-44.587-13.714-1.703-26.664-3.302-40.583-3.302-4.821 0-9.391.183-13.989.583l-.354.022c-4.043.377-9.087.833-13.097 4.159l-.258.205.115.332c.646 1.725 2.576 2.695 4.444 3.644.634.319 1.239.628 1.742.925l.532.342c1.193.789 1.656 1.13 1.707 1.977-1.919 2.216-5.421 2.639-7.934 2.788-.714.08-2.188.217-4.096.217-2.993 0-8.317-.366-10.338-2.811-.704-.856-.937-1.873-.692-3.119 1.583-6.545 5.57-13.389 9.5-16.291 14.422-6.1 31.587-9.195 50.99-9.195m29 125.938c-.501 0-.994-.012-1.484-.045h-.057l-.068.012c-3.701.798-7.443 1.347-11.047 1.885-10.447 1.553-20.306 3.015-29.125 9.846-1.896 2.011-1.171 4.822.069 6.66 12.098 14.145 28.451 25.408 46.033 31.727 4.33 1.518 7.38 2.354 9.042 2.467l.525.035-.011-.527c-.057-12.564.635-24.811 1.36-37.779.137-2.558.292-5.151.428-7.79.211-2.491-.046-6.146-.058-6.307l-.022-.354-.36-.08c-1.28-.25-2.668-.365-4.273-.365-1.844 0-3.741.149-5.58.297-1.779.158-3.629.318-5.372.318m-29-126.418c-17.918 0-35.551 2.604-51.236 9.252-4.153 3.028-8.18 10.156-9.722 16.61-1.04 5.347 6.049 6.523 11.498 6.523 1.617 0 3.079-.103 4.153-.229 2.936-.172 6.438-.72 8.368-3.096 0-1.462-.948-1.874-2.456-2.89-2.051-1.244-5.232-2.227-6.014-4.341 4.009-3.313 9.042-3.69 13.194-4.066 4.748-.411 9.386-.571 13.943-.571 13.909 0 27.046 1.622 40.562 3.29 41.223 7.369 80.059 20.335 114.011 44.508 16.406 12.063 30.686 26.732 41.675 43.125 3.451 9.962 10.225 20.505 8.739 31.449-.72 13.127-7.493 23.262-18.335 30.789-15.845 11.035-34.751 16.861-54.778 18.838-5.506.012-10.237.16-14.925.16-8.307 0-16.52-.48-28.835-3.107l-1.462-.525c.372-11.607.125-21.26.234-35.016.428-6.865-.234-17.581-.737-25.715 4.33.115 7.449-.091 13.32.48 12.927 1.256 25.316 3.553 37.466 6.443 3.77.822 12.636 1.999 12.704 4.912-.982 7.014-6.569 11.045-12.818 13.915v1.232c3.132 1.863 7.837 3.691 12.611 3.691 1.395 0 2.788-.148 4.159-.492 6.512-2.271 11.413-7.938 14.257-15.215 2.343-9.129-3.609-16.52-9.847-21.97-11.698-8.658-24.711-10.167-39.636-12.669-8.179-1.211-15.971-1.736-23.842-1.736-2.57 0-5.146.046-7.746.172l-1.285-.24c-.583-6.42-1.228-13.754-2.141-21.352 0 0-1.742-12.44-3.919-17.89-1.564-3.21-4.129-7.552-7.203-7.552-.377 0-.749.057-1.136.206-2.411 1.063-2.547 3.862-2.948 6.592-1.519 10.213-3.827 20.757-3.953 31.279-.788 3.016-.788 7.917-1.005 11.641 0 0-.154 0-.446 0-.667 0-2.084.045-4.096.389-21.219 3.496-43.444 7.813-58.524 23.762-3.605 3.998-3.382 10.669-.995 15 15.474 20.643 36.997 38.658 61.084 49.684.725 6.338 2.062 13.285 5.198 19.064 2.176 3.359 6.106 4.365 9.693 4.365 2.798 0 5.381-.604 6.763-1.223 3.147-2.055 5.335-7.357 5.449-12.611 3.49 1.406 23.729 3.221 42.309 3.221 7.541 0 14.807-.297 20.563-1.061 17.742-2.32 32.821-7.072 46.839-16.234 17.752-11.195 30.045-26.961 33.404-47.285 1.369-10.292-1.063-18.472-3.531-26.869-5.975-13.994-13.834-26.732-23.875-37.459-24.426-26.447-56.059-46.359-89.771-59.496-10.646-4.422-21.991-7.644-33.083-11.104-19.209-4.945-40.744-8.578-61.896-8.578m29 126.897c3.548 0 7.323-.617 10.95-.617 1.417 0 2.822.092 4.176.366 0 0 .269 3.747.057 6.226-.874 16.278-1.856 30.592-1.788 45.616-1.942-.137-5.57-1.268-8.922-2.443-17.364-6.238-33.53-17.205-45.821-31.588-1.011-1.496-1.852-4.125-.086-6.009 11.755-9.094 25.761-8.557 39.927-11.595.49.033 1.005.044 1.507.044"/><path d="m1.863 1.839h270.131v270.133h-270.131z" fill="#fff"/><path d="m1.857 271.972h270.137v-270.133h-270.137zm252.167-157.846c-.446 8.43-3.125 18.906-5.484 25.92-9.5 28.219-20.511 45.709-46.021 45.709-7.501 0-20.827-2-25.738-15.354l-1.161-3.166-2.09 2.65c-7.968 10.111-19.814 15.938-32.512 15.994-9.728.045-17.548-3.221-22.608-9.436l-1.394-1.703-1.474 1.635c-5.404 5.951-14.812 9.379-25.818 9.379-8.63 0-16.096-2.936-21.008-8.26l-1.337-1.463-1.388 1.416c-5.455 5.508-14.051 8.283-24.859 8.033-13.126-.32-21.105-7.633-21.363-19.582-.4-18.439 17.439-57.224 24.824-69.024 4.792-7.871 11.39-11.686 20.164-11.686 5.969 0 10.053 1.245 12.486 3.815 2.211 2.342 2.645 4.319 2.84 9.048l.256 6.135 3.233-5.22c7.836-12.612 20.809-14.35 33.678-14.35 8.939 0 16.742 3.291 19.872 8.375l1.148 1.874 1.685-1.428c6.62-5.632 15.971-8.728 26.321-8.728 11.287 0 19.5 2.81 24.401 8.339 1.114 1.269 1.851 2.148 2.878 4.295l1.251 2.627 1.896-2.217c7.157-8.487 16.948-12.783 29.103-12.783 9.619 0 16.919 2.559 21.7 7.597 6.005 6.319 6.856 15.207 6.519 21.559" fill="#fcec00"/><path d="m1.863 271.972h270.131v-270.133h-270.131zm259.769-147.473c-1.228 9.824-7.876 28.035-11.395 35.313-9.476 19.523-22.135 34.512-46.513 34.512-13.017 0-23.733-4.16-30.004-12.133-9.175 8.031-20.53 12.246-32.742 12.246-9.431 0-17.747-2.719-24.1-7.758-7.008 4.936-16.462 7.699-26.932 7.699-8.75 0-16.633-2.408-22.785-6.842-6.821 4.523-15.76 6.764-26.241 6.512-17.451-.41-29.502-11.471-29.84-27.543-.469-21.34 17.525-60.41 25.99-73.948 6.339-10.408 16.017-16.016 27.868-16.016 12.875 0 17.547 3.678 19.838 8.351 9.933-8.432 23.093-8.911 32.461-8.911 10.356 0 16.844 2.754 22.368 7.141 7.625-4.582 16.364-6.958 26.789-6.958 13.326 0 23.219 3.108 30.125 9.928 8.06-6.694 18.13-9.756 29.428-9.756 14.919 0 24.733 5.381 30.497 13.4 8.136 11.321 6.685 22.721 5.188 34.763" fill="#e11f26"/><path d="m0 273.8h273.788v-273.8h-273.788zm270.029-3.77h-266.248v-266.249h266.248z"/><path d="m260.313 82.172v-1.861h1.269c.919 0 1.399.32 1.399.925 0 .468-.303.937-1.251.937h-1.417zm4.541 3.863-.794-1.372c-.68-1.2-.868-1.382-1.451-1.576v-.035c1.143-.148 1.833-.88 1.833-1.908 0-1.084-.69-1.896-2.142-1.896h-3.387v6.787h1.398v-2.788h.258c.6 0 .834.067 1.114.353.268.263.679.834.925 1.314l.549 1.121zm-3.347-8.683c2.925 0 5.29 2.354 5.29 5.267s-2.365 5.278-5.29 5.278c-2.913 0-5.25-2.365-5.25-5.278s2.337-5.267 5.25-5.267m0-1.303c-3.627 0-6.552 2.924-6.552 6.569 0 3.621 2.925 6.546 6.552 6.546 3.638 0 6.563-2.925 6.563-6.546 0-3.644-2.925-6.569-6.563-6.569"/><path d="m225.807 83.075c-14.154 0-23.922 5.621-30.548 13.457-1.12-2.353-1.965-3.381-3.169-4.729-5.416-6.124-14.132-8.979-25.818-8.979-11.412 0-20.94 3.551-27.549 9.185-3.427-5.587-11.613-9.277-21.477-9.277-12.893 0-26.938 1.817-35.283 15.252-.195-4.844-.629-7.393-3.341-10.271-3.313-3.496-8.66-4.41-13.863-4.41-9.488 0-16.622 4.136-21.757 12.578-7.465 11.904-25.527 51.065-25.115 70.042.256 12.258 8.476 21.1 23.195 21.43 11.499.285 20.518-2.785 26.247-8.578 5.153 5.586 13.012 8.875 22.403 8.875 10.459 0 21.003-3.152 27.212-10.018 5.243 6.443 13.486 10.18 24.087 10.133 13.863-.068 26.041-6.639 33.981-16.715 4.364 11.883 15.434 16.6 27.515 16.6 26.486 0 38.115-18.207 47.798-47.008 2.188-6.49 5.101-17.308 5.58-26.414.81-15.137-5.593-31.153-30.098-31.153m-176.209 72.393c13.697-2.375 17.147 2.584 16.713 7.176-1.285 13.721-13.886 16.793-24.824 16.541-7.939-.193-15.074-3.814-15.274-13.033-.342-16.121 16.097-53.397 23.832-65.758 3.564-5.861 7.928-8.762 14.862-8.762 6.591 0 8.214 3.382 8.122 7.425-.258 10.784-17.714 43.606-23.431 56.411m44.616-12.656c-.903 2.455-2.622 7.586-4.005 13.047 4.496-1.133 7.865-1.908 13.64-1.771 6.586.16 10.802 2.891 10.802 8.34 0 13.193-14.589 17.066-24.71 17.066-11.11 0-20.866-6.328-20.866-18.473 0-14.244 7.717-35.836 14.96-50.23 8.905-17.662 17.992-20.015 33.656-20.015 6.876 0 14.81 2.948 14.81 9.447 0 9.002-7.625 12.441-15.193 12.875-3.233.171-8.203.365-11.185.137 0 0-2.519 3.851-5.197 10.682 14.017-1.978 19.946 1.21 17.581 9.31-3.193 10.956-12.681 11.665-24.293 9.585m68.904-34.055c-3.793 0-6.26 2.398-8.11 4.992-4.056 5.701-12.858 28.549-14.224 37.938-.936 6.422 1.835 7.734 4.867 7.734 4.867 0 10.327-5.15 12.189-13.65 0 0-9.264-.219-6.716-8.431 2.489-7.985 7.197-9.7 14.999-10.03 15.383-.628 13.863 10.728 12.636 16.793-4.005 19.66-17.994 35.447-37.786 35.447-13.56 0-21.974-7.492-21.974-21.305 0-9.859 4.877-25.315 8.762-34.363 8.237-19.25 16.885-32.73 38.911-32.73 13.206 0 23.63 4.752 22.111 17.125-1.125 9.094-5.672 14.429-13.932 15.069-2.319.171-11.772-.058-8.636-9.014 1.1-3.119 1.558-5.575-3.097-5.575m83.172 16.243c-2.33 11.597-7.557 25.305-13.246 35.528-9.277 16.68-20.542 19.021-30.376 18.908-9.831-.113-20.918-3.758-20.997-18.93-.064-10.885 4.644-26.275 8.619-36.339 6.952-18.278 14.063-33.164 36.522-32.901 26.19.309 21.523 23.603 19.478 33.734m-18.673-11.412c-.279 6.993-10.526 34.969-14.176 41.137-1.577 2.686-3.359 4.891-6.563 4.891-2.793 0-4.05-1.988-4.119-4.25-.2-6.318 11.384-37.962 15.349-43.102 1.754-2.72 3.719-3.154 5.969-3.12 3.284.035 3.62 2.411 3.54 4.444"/></svg>