<svg xmlns="http://www.w3.org/2000/svg" fill="none" viewBox="0 14 340 77.79">
<path fill-rule="evenodd" clip-rule="evenodd" d="M242.377 23.4766H255.48L255.877 77.9969L244.893 78.9679L235.17 55.5171L235.954 77.0122H223.062V26.3375L234.327 24.057L244.33 48.8761L242.377 23.4766Z" fill="black"/>
<path fill-rule="evenodd" clip-rule="evenodd" d="M330.562 69.3517V83.7912L306.344 82.0429V23.3105L330.562 21.3203V36.9519L320.175 37.3458V45.9701H329.003V58.4815H320.4V69.3552H330.562V69.3517Z" fill="black"/>
<path fill-rule="evenodd" clip-rule="evenodd" d="M120.621 58.7733L120.884 45.0975H111.506V34.476H122.307L123.62 20.4062H97.25V85.3788L111.513 82.7182V58.7733H120.621Z" fill="black"/>
<path fill-rule="evenodd" clip-rule="evenodd" d="M140.051 24.3438C126.14 24.3438 122.844 36.6168 122.844 51.7577C122.844 66.8951 126.413 79.1716 140.051 79.1716C153.689 79.1716 157.258 66.8986 157.258 51.7577C157.258 36.6168 153.958 24.3438 140.051 24.3438ZM139.93 68.2358C138.068 68.2358 137.746 60.9176 137.746 51.8855C137.746 42.857 138.009 35.5353 139.93 35.5353C141.851 35.5353 142.11 42.857 142.11 51.8855C142.11 60.9176 141.785 68.2358 139.93 68.2358Z" fill="black"/>
<path fill-rule="evenodd" clip-rule="evenodd" d="M185.739 57.2902C185.739 57.2902 191.776 53.2924 191.776 43.2342C191.776 33.1725 185.045 24.4688 176.362 24.4688H159.172V78.0009H172.661L173.231 61.198L178.701 79.9566L192.767 78.7784L185.739 57.2902ZM172.848 51.4335V36.5863C172.848 36.5863 177.101 36.1337 177.101 43.7594C177.101 51.3886 172.848 51.437 172.848 51.4335Z" fill="black"/>
<path fill-rule="evenodd" clip-rule="evenodd" d="M192.164 24.5312L221.44 26.8739V40.5498H213.676V77.673H199.61V38.2071H192.164V24.5312Z" fill="black"/>
<path fill-rule="evenodd" clip-rule="evenodd" d="M274.925 28.692L304.62 27.1406V40.8234H296.621V81.1911H282.561V42.3679H274.922V28.692H274.925Z" fill="black"/>
<path d="M273.236 26.0078H258.766V79.54H273.236V26.0078Z" fill="black"/>
<path d="M332.758 80.736C332.758 78.6111 334.361 77.0078 336.375 77.0078C338.397 77.0078 340 78.6111 340 80.736C340 82.861 338.397 84.4642 336.375 84.4642C334.361 84.4642 332.758 82.861 332.758 80.736ZM339.323 80.736C339.323 78.9808 338.024 77.6367 336.375 77.6367C334.734 77.6367 333.435 78.9808 333.435 80.736C333.435 82.4913 334.734 83.8354 336.375 83.8354C338.024 83.8354 339.323 82.4913 339.323 80.736ZM334.904 78.808H336.614C337.46 78.808 337.961 79.2399 337.961 79.9793C337.961 80.6289 337.595 81.0366 337.06 81.1714L337.961 82.3807V82.6399H337.364L336.337 81.2543H335.56V82.6399H334.914V78.8045L334.904 78.808ZM336.617 80.6773C337.039 80.6773 337.339 80.4596 337.339 80.0484C337.339 79.6407 337.035 79.4438 336.617 79.4438H335.56V80.6773H336.617Z" fill="black"/>
<path d="M0.53125 14.5234V91.2784H77.2896V14.5234H0.53125Z" fill="white"/>
<path d="M0.53125 14.5234V91.2784H77.2896V14.5234H0.53125ZM72.1793 46.4327C71.9616 48.9446 71.4399 51.4151 70.621 53.7924C67.919 61.812 64.792 66.7841 57.5463 66.7841C55.411 66.7841 51.6275 66.2174 50.2316 62.4236L49.8999 61.5217L49.3056 62.2715C47.0873 65.1187 43.677 66.7945 40.0697 66.8186C37.3055 66.829 35.0803 65.9065 33.6464 64.1408L33.2559 63.6605L32.8344 64.127C31.3002 65.8201 28.6259 66.7945 25.4989 66.7945C23.0422 66.7945 20.9241 65.9583 19.5282 64.4449L19.1481 64.0303L18.7508 64.4276C17.1994 65.9928 14.7531 66.7806 11.6813 66.7081C7.95313 66.6182 5.68303 64.5382 5.61047 61.1417C5.4999 55.9001 10.5653 44.8813 12.6661 41.5297C14.0275 39.2941 15.9071 38.2057 18.3949 38.2057C20.0949 38.2057 21.2524 38.5582 21.9434 39.2941C22.5723 39.9541 22.6932 40.5207 22.7485 41.8683L22.8211 43.6132L23.7402 42.1343C25.9653 38.5478 29.6521 38.0537 33.3077 38.0537C35.8474 38.0537 38.0656 38.9831 38.9571 40.4344L39.2888 40.9665L39.7656 40.5622C41.8906 38.8795 44.5339 38.0019 47.2497 38.0779C50.4596 38.0779 52.7919 38.8726 54.1844 40.4482C54.5195 40.8075 54.7959 41.2152 55.0033 41.6644L55.3626 42.4142L55.9016 41.7819C57.9368 39.3701 60.7217 38.1504 64.1735 38.1504C66.91 38.1504 68.9832 38.8795 70.3377 40.31C72.0307 42.1067 72.2726 44.6325 72.1793 46.4327Z" fill="#FFED00"/>
<path d="M0.53125 14.5234V91.2784H77.2896V14.5234H0.53125ZM74.3423 49.3731C73.9933 52.1649 72.1067 57.3443 71.1013 59.4106C68.4096 64.9528 64.8127 69.2131 57.8849 69.2131C54.1844 69.2131 51.1437 68.0314 49.3608 65.7648C46.7936 68.028 43.48 69.2684 40.0558 69.2442C37.5888 69.3064 35.1736 68.5324 33.211 67.0398C30.9409 68.5324 28.2665 69.2926 25.5542 69.2269C23.2461 69.2788 20.9794 68.5946 19.0756 67.2816C17.1372 68.567 14.5976 69.2028 11.6226 69.1371C6.66086 69.0196 3.24362 65.8754 3.14342 61.311C3.01557 55.247 8.11898 44.1418 10.5307 40.2996C12.1409 37.4456 15.1781 35.6972 18.4502 35.749C22.1093 35.749 23.4326 36.796 24.0822 38.1262C26.9017 35.7283 30.6472 35.5936 33.3077 35.5936C36.2516 35.5936 38.0898 36.371 39.6619 37.6218C41.9666 36.2708 44.6064 35.5866 47.2739 35.6419C51.0608 35.6419 53.8699 36.523 55.8325 38.4614C58.1199 36.5541 60.9843 35.6868 64.1942 35.6868C68.4304 35.6868 71.2222 37.2175 72.8669 39.498C75.1819 42.7079 74.7673 45.9489 74.3423 49.3731Z" fill="#E3000B"/>
<path d="M0 14V91.7949H77.7984V14H0ZM76.7273 15.0711V90.7273H1.07113V15.0711H76.7273Z" fill="black"/>
<path d="M73.9647 37.343V36.8178H74.3241C74.5867 36.8178 74.7214 36.9076 74.7214 37.0804C74.7214 37.2152 74.6316 37.3499 74.369 37.3499H73.9647V37.343ZM75.2535 38.4418L75.0289 38.0548C74.832 37.7127 74.7836 37.6609 74.6143 37.6022V37.5918C74.9045 37.5849 75.1395 37.3465 75.136 37.0528C75.136 36.7452 74.9391 36.5137 74.5245 36.5137H73.5605V38.4418H73.9578V37.6505H74.0304C74.1997 37.6505 74.2722 37.6713 74.3483 37.7473C74.4554 37.8578 74.5383 37.9891 74.6109 38.1273L74.7663 38.4418H75.2535ZM74.2999 35.9713C75.1291 35.9713 75.8029 36.6381 75.8029 37.4605C75.8029 38.2897 75.1361 38.9635 74.3137 38.9635C73.4844 38.9635 72.8107 38.2967 72.8107 37.4709C72.8107 36.6485 73.4775 35.9816 74.2999 35.9747V35.9713ZM74.2999 35.6016C73.2702 35.6016 72.4375 36.4377 72.4375 37.4674C72.4375 38.4971 73.2737 39.3298 74.3033 39.3298C75.3295 39.3298 76.1623 38.4936 76.1623 37.4674C76.1623 36.4412 75.333 35.605 74.3068 35.605C74.3068 35.605 74.2999 35.605 74.2964 35.605V35.6016H74.2999Z" fill="black"/>
<path d="M64.1589 37.6011C60.1404 37.6011 57.3589 39.194 55.4827 41.4226C55.2581 40.9285 54.9575 40.4759 54.5878 40.0785C53.0537 38.3371 50.5728 37.5285 47.2523 37.5285C44.4156 37.4456 41.641 38.3682 39.4227 40.1407C38.4484 38.5548 36.1195 37.5078 33.3173 37.5078C29.6513 37.5078 25.6605 38.0226 23.2971 41.8476C23.2418 40.4759 23.1174 39.7468 22.3434 38.9279C21.4071 37.9363 19.8868 37.6737 18.4045 37.6737C15.7094 37.6737 13.6777 38.8519 12.223 41.2498C10.1049 44.636 4.97044 55.7619 5.08792 61.1521C5.16048 64.6315 7.49968 67.1435 11.6805 67.2437C14.9492 67.3232 17.5095 66.449 19.1404 64.8043C20.602 66.3902 22.8341 67.3266 25.5084 67.3266C28.48 67.3266 31.4722 66.4352 33.2413 64.4864C34.734 66.3177 37.0766 67.3784 40.0861 67.3681C43.8627 67.3439 47.4182 65.5955 49.7436 62.6206C50.9805 65.9929 54.1283 67.3335 57.5628 67.3335C65.0918 67.3335 68.3915 62.161 71.1488 53.9755C71.985 51.5499 72.5171 49.0276 72.7348 46.4707C72.9628 42.1655 71.1419 37.6149 64.1831 37.6149L64.1589 37.6011ZM14.0888 58.1702C17.9864 57.493 18.9607 58.9027 18.8364 60.2053C18.4666 64.1063 14.8905 64.9805 11.7807 64.9079C9.52792 64.8527 7.49968 63.8195 7.4444 61.2039C7.3442 56.6257 12.0191 46.0319 14.2167 42.5214C15.2325 40.8559 16.4695 40.0336 18.4425 40.0336C20.3152 40.0336 20.7748 40.9907 20.7471 42.1413C20.6676 45.2061 15.7128 54.5284 14.0888 58.1702ZM26.7696 54.5733C26.5105 55.2678 26.0233 56.7328 25.6328 58.2773C26.894 57.9076 28.2001 57.7383 29.5096 57.7729C31.3824 57.8178 32.5744 58.5952 32.5744 60.1397C32.5744 63.8886 28.4316 64.9943 25.5568 64.9943C22.4022 64.9943 19.6276 63.1941 19.6276 59.7423C19.6276 55.6962 21.8251 49.5597 23.881 45.4722C26.4103 40.4517 28.9913 39.7848 33.4417 39.7848C35.3974 39.7848 37.6502 40.621 37.6502 42.4626C37.6502 45.023 35.4803 46.0008 33.3346 46.1217C32.2738 46.1874 31.2165 46.2047 30.1558 46.1667C29.5718 47.1307 29.0743 48.1465 28.6804 49.2004C32.6608 48.6406 34.347 49.5424 33.6732 51.8471C32.7645 54.9568 30.0694 55.1641 26.7696 54.5698V54.5733ZM46.3471 44.8917C45.3899 44.9435 44.5192 45.4756 44.0424 46.3083C42.8883 47.9288 40.3867 54.4178 39.9998 57.0853C39.7303 58.9131 40.5215 59.2828 41.3853 59.2828C42.7709 59.2828 44.3154 57.8212 44.8475 55.4025C44.8475 55.4025 42.2146 55.3404 42.9436 53.0046C43.6485 50.7414 44.9822 50.2473 47.204 50.1575C51.5748 49.9778 51.1429 53.205 50.7905 54.9257C49.6537 60.5129 45.6802 65.0047 40.0516 65.0047C36.2024 65.0047 33.808 62.8763 33.808 58.9476C33.808 56.1523 35.197 51.7573 36.2957 49.1831C38.6384 43.7134 41.0951 39.885 47.356 39.885C51.1118 39.885 54.0695 41.236 53.6376 44.75C53.3163 47.3276 52.0275 48.8479 49.6814 49.0311C49.018 49.0829 46.3401 49.0138 47.2316 46.4742C47.5391 45.5827 47.6704 44.8882 46.3505 44.8882H46.3471V44.8917ZM69.981 49.5113C69.2139 53.0357 67.9458 56.4391 66.2147 59.6041C63.5818 64.3447 60.3788 65.0081 57.5835 64.9736C54.7882 64.939 51.637 63.9094 51.6129 59.5938C51.5956 56.5013 52.9293 52.127 54.0626 49.2626C56.0425 44.0728 58.0604 39.8401 64.4353 39.9127C71.8779 40.0025 70.558 46.6228 69.9741 49.501L69.981 49.5113ZM64.6737 46.2669C64.5942 48.2571 61.6815 56.2042 60.6449 57.9594C60.1957 58.723 59.6912 59.3484 58.779 59.3484C58.1571 59.3761 57.6284 58.8889 57.6077 58.267C57.6077 58.222 57.6077 58.184 57.6077 58.1391C57.5524 56.3458 60.8418 47.3484 61.9682 45.8937C62.3034 45.289 62.9703 44.9366 63.6682 45.0022C64.6046 45.0092 64.7013 45.6864 64.6737 46.2669Z" fill="black"/>
</svg>